<?xml version="1.0" encoding="UTF-8" standalone="no" ?>
<!DOCTYPE svg PUBLIC "-//W3C//DTD SVG 1.1//EN" "http://www.w3.org/Graphics/SVG/1.1/DTD/svg11.dtd">
<svg xmlns="http://www.w3.org/2000/svg" xmlns:xlink="http://www.w3.org/1999/xlink" version="1.1" width="1280" height="1024" viewBox="0 0 1280 1024" xml:space="preserve">
<desc>Created with Fabric.js 5.3.0</desc>
<defs>
</defs>
<g transform="matrix(1 0 0 1 640 512)" id="background-logo"  >
<rect style="stroke: none; stroke-width: 0; stroke-dasharray: none; stroke-linecap: butt; stroke-dashoffset: 0; stroke-linejoin: miter; stroke-miterlimit: 4; fill: rgb(255,255,255); fill-opacity: 0; fill-rule: nonzero; opacity: 1;"  paint-order="stroke"  x="-640" y="-512" rx="0" ry="0" width="1280" height="1024" />
</g>
<g transform="matrix(1.9211538461538462 0 0 1.9211538461538462 640 406.649122581971)" id="logo-logo"  >
<g style=""  paint-order="stroke"   >
		<g transform="matrix(1.0347594540062948 0 0 1.0347594540062948 0 0)"  >
<linearGradient id="SVGID_47_194782" gradientUnits="userSpaceOnUse" gradientTransform="matrix(1 0 0 1 0 0)"  x1="99.4595" y1="69.5308" x2="208.2693" y2="175.1251">
<stop offset="0%" style="stop-color:rgb(180,115,237);stop-opacity: 1"/>
<stop offset="45.45%" style="stop-color:rgb(221,192,247);stop-opacity: 1"/>
<stop offset="100%" style="stop-color:rgb(180,115,237);stop-opacity: 1"/>
</linearGradient>
<path style="stroke: none; stroke-width: 1; stroke-dasharray: none; stroke-linecap: butt; stroke-dashoffset: 0; stroke-linejoin: miter; stroke-miterlimit: 4; fill: url(#SVGID_47_194782); fill-rule: nonzero; opacity: 1;"  paint-order="stroke"  transform=" translate(-162.115, -130.02500000000003)" d="M 258.929 125.169 C 258.62199999999996 118.836 257.69 112.649 256.217 106.684 L 220.23999999999998 106.672 C 213.84499999999997 90.702 201.09199999999998 77.949 185.123 71.554 L 185.123 48.294 C 211.588 55.855 232.821 75.985 241.92899999999997 101.774 L 254.86699999999996 101.774 C 244.96199999999996 69.197 218.38699999999997 43.826 185.12299999999996 35.602000000000004 C 181.12199999999996 34.608000000000004 177.02199999999996 33.859 172.84899999999996 33.405 L 172.84899999999996 68.04400000000001 C 169.26499999999996 67.406 165.57099999999997 67.07400000000001 161.80099999999996 67.07400000000001 C 158.03299999999996 67.07400000000001 154.33799999999997 67.406 150.75399999999996 68.04400000000001 L 150.75399999999996 33.404 C 146.58099999999996 33.858000000000004 142.48199999999997 34.608000000000004 138.47999999999996 35.601000000000006 C 99.54499999999996 45.212 69.77899999999997 78.32900000000001 65.17599999999996 118.97 L 77.52499999999996 118.97 C 81.94399999999996 85.11699999999999 106.35699999999997 57.475 138.47999999999996 48.294 L 138.47999999999996 71.554 C 118.59499999999996 79.521 103.66899999999995 97.343 99.83999999999996 118.971 L 99.38599999999997 123.881 L 67.22599999999997 123.881 C 66.90699999999997 123.881 65.48299999999998 123.832 65.17599999999997 123.881 L 65.17599999999997 136.155 C 65.48299999999998 136.205 66.90699999999997 136.155 67.22599999999997 136.155 L 132.36799999999997 136.155 C 132.46599999999998 137.371 132.63799999999998 138.574 132.87099999999995 139.739 L 132.88299999999995 139.739 C 132.96899999999997 140.181 133.06599999999995 140.624 133.16399999999996 141.065 C 135.54599999999996 151.057 142.49399999999997 159.29399999999998 151.66199999999995 163.454 L 151.66199999999995 173.642 L 158.01999999999995 173.642 L 158.01999999999995 165.554 C 160.32899999999995 166.07 162.72099999999995 166.365 165.18899999999996 166.365 C 165.32299999999995 166.365 165.44699999999997 166.352 165.56999999999996 166.352 L 165.56999999999996 173.828 L 171.93899999999996 173.828 L 171.93899999999996 165.65200000000002 C 178.18699999999995 164.35100000000003 183.95799999999997 161.22000000000003 188.52199999999996 156.65500000000003 L 204.89599999999996 156.65500000000003 C 195.94899999999996 171.07800000000003 179.97999999999996 180.70100000000002 161.79999999999995 180.70100000000002 C 137.63199999999995 180.70100000000002 117.39099999999996 163.71300000000002 112.34599999999995 141.06600000000003 L 99.839 141.06600000000003 C 103.669 162.69400000000002 118.594 180.52900000000002 138.47899999999998 188.49600000000004 L 138.47899999999998 211.75600000000003 C 106.356 202.57400000000004 81.94299999999998 174.92000000000002 77.52399999999999 141.06700000000004 L 65.176 141.06700000000004 C 69.779 181.72000000000003 99.545 214.83800000000002 138.48000000000002 224.44900000000004 C 142.48200000000003 225.44300000000004 146.58200000000002 226.19200000000004 150.75400000000002 226.64600000000004 L 150.75400000000002 192.00600000000003 C 154.33800000000002 192.64500000000004 158.03300000000002 192.97600000000003 161.80100000000002 192.97600000000003 C 165.57100000000003 192.97600000000003 169.26500000000001 192.64500000000004 172.84900000000002 192.00600000000003 L 172.84900000000002 226.64600000000002 C 177.02300000000002 226.192 181.122 225.443 185.12300000000002 224.449 C 226.01000000000002 214.346 256.795 178.32100000000003 258.92900000000003 134.86900000000003 C 259.016 133.26200000000003 259.05400000000003 131.64000000000001 259.05400000000003 130.02000000000004 C 259.054 128.385 259.016 126.777 258.929 125.169 z M 185.123 211.754 L 185.123 188.494 C 201.09199999999998 182.099 213.846 169.333 220.23999999999998 153.352 L 243.51299999999998 153.352 C 235.461 181.485 213.256 203.714 185.123 211.754 z M 246.559 136.154 C 246.472 137.395 246.34799999999998 138.623 246.213 139.837 C 246.165 140.242 246.10299999999998 140.648 246.055 141.053 L 211.293 141.053 L 211.293 141.065 L 211.25400000000002 141.065 C 211.01000000000002 142.182 210.70300000000003 143.288 210.38500000000002 144.379 L 186.38700000000003 144.379 C 184.96300000000002 144.379 183.67500000000004 144.87 182.63300000000004 145.68099999999998 C 181.89400000000003 146.02399999999997 181.19600000000003 146.515 180.61800000000005 147.166 C 176.70300000000006 151.559 171.08200000000005 154.088 165.18900000000005 154.088 C 156.49900000000005 154.088 149.04700000000005 148.688 146.00300000000004 141.065 C 145.04600000000005 138.696 144.53100000000003 136.12 144.53100000000003 133.419 C 144.53100000000003 127.79700000000001 146.79000000000002 122.69000000000001 150.43400000000003 118.971 C 154.19100000000003 115.14200000000001 159.41900000000004 112.76100000000001 165.18900000000002 112.76100000000001 C 170.71200000000002 112.76100000000001 175.90500000000003 114.909 179.80800000000002 118.81200000000001 C 179.87000000000003 118.87400000000001 179.93000000000004 118.92200000000001 179.99200000000002 118.97200000000001 C 180.38600000000002 119.328 180.81400000000002 119.611 181.26700000000002 119.85700000000001 C 181.77100000000002 123.39200000000001 184.80400000000003 126.11600000000001 188.48600000000002 126.11600000000001 C 192.52300000000002 126.11600000000001 195.78900000000002 122.85100000000001 195.78900000000002 118.81200000000001 C 195.78900000000002 115.13000000000001 193.06500000000003 112.09800000000001 189.52900000000002 111.59500000000001 C 189.24600000000004 111.06700000000001 188.92700000000002 110.57600000000001 188.48600000000002 110.13400000000001 C 183.96900000000002 105.61700000000002 178.36 102.57200000000002 172.247 101.24700000000001 L 172.247 90.948 L 165.889 90.948 L 165.889 100.49699999999999 C 165.657 100.49699999999999 165.422 100.48499999999999 165.19 100.48499999999999 C 162.845 100.48499999999999 160.55 100.74299999999998 158.341 101.20899999999999 L 158.341 90.776 L 151.982 90.776 L 151.982 103.27199999999999 C 144.851 106.40199999999999 139.02 111.99999999999999 135.608 118.97099999999999 C 135.31300000000002 119.56099999999999 135.043 120.14899999999999 134.786 120.76299999999999 C 134.369 121.77 133.987 122.81299999999999 133.681 123.88099999999999 L 111.894 123.83199999999998 L 112.349 118.97099999999998 C 117.406 96.33699999999997 137.64600000000002 79.34899999999998 161.803 79.34899999999998 C 185.948 79.34899999999998 206.213 96.33699999999997 211.256 118.97099999999998 L 246.05700000000002 118.97099999999998 C 246.10500000000002 119.37599999999998 246.16700000000003 119.78099999999998 246.215 120.19899999999997 C 246.35 121.41399999999997 246.474 122.64199999999997 246.561 123.88099999999997 C 246.707 125.90699999999997 246.782 127.95699999999997 246.782 130.01899999999998 C 246.779 132.08 246.705 134.13 246.559 136.154 z" stroke-linecap="round" />
</g>
</g>
</g>
<g transform="matrix(1.9211538461538462 0 0 1.9211538461538462 640.1546528846152 687.8520613018999)" id="text-logo"  >
<g style=""  paint-order="stroke"   >
		<g transform="matrix(1 0 0 1 0 0)" id="text-logo-path-0"  >
<path style="stroke: none; stroke-width: 0; stroke-dasharray: none; stroke-linecap: butt; stroke-dashoffset: 0; stroke-linejoin: miter; stroke-miterlimit: 4; fill: rgb(219,187,246); fill-rule: nonzero; opacity: 1;"  paint-order="stroke"  transform=" translate(-176.64, 16.099999999999998)" d="M 18.77 0.74 C 25.44 0.74 30.91 -2.44 33.63 -7.73 L 27.28 -11.59 C 25.85 -8.79 22.49 -6.53 18.77 -6.53 C 13.52 -6.53 9.66 -10.63 9.66 -16.05 C 9.66 -21.39 13.25 -25.67 18.77 -25.67 C 22.59 -25.67 26.13 -23.28 27.51 -20.1 L 33.86 -24.06 C 31.23 -29.49 25.9 -32.94 18.77 -32.94 C 9.06 -32.94 1.98 -26.22 1.98 -16.05 C 1.98 -6.35 8.65 0.74 18.77 0.74 Z M 60.86 0.74 C 70.56 0.74 77.65 -5.93 77.65 -16.05 C 77.65 -25.85 71.02 -32.94 60.86 -32.94 C 51.15 -32.94 44.07 -26.22 44.07 -16.05 C 44.07 -6.35 50.74 0.74 60.86 0.74 Z M 51.75 -16.05 C 51.75 -21.39 55.34 -25.67 60.86 -25.67 C 66.1 -25.67 69.97 -21.53 69.97 -16.05 C 69.97 -10.81 66.33 -6.53 60.86 -6.53 C 55.61 -6.53 51.75 -10.63 51.75 -16.05 Z M 90.8 -32.2 L 90.8 0 L 98.16 0 L 98.16 -32.2 Z M 112.88 -32.2 L 112.88 0 L 120.24 0 L 120.24 -19.87 L 136.34 0 L 143.7 0 L 143.7 -32.2 L 136.34 -32.2 L 136.34 -12.33 L 120.24 -32.2 Z M 173.74 0.74 C 180.41 0.74 185.89 -2.44 188.6 -7.73 L 182.25 -11.59 C 180.83 -8.79 177.47 -6.53 173.74 -6.53 C 168.5 -6.53 164.63 -10.63 164.63 -16.05 C 164.63 -21.39 168.22 -25.67 173.74 -25.67 C 177.56 -25.67 181.1 -23.28 182.48 -20.1 L 188.83 -24.06 C 186.21 -29.49 180.87 -32.94 173.74 -32.94 C 164.04 -32.94 156.95 -26.22 156.95 -16.05 C 156.95 -6.35 163.62 0.74 173.74 0.74 Z M 201.99 -32.2 L 201.99 0 L 225.81 0 L 225.81 -6.9 L 209.35 -6.9 L 209.35 -32.2 Z M 239.38 -32.2 L 239.38 0 L 263.21 0 L 263.21 -6.9 L 246.74 -6.9 L 246.74 -12.65 L 259.99 -12.65 L 259.99 -19.09 L 246.74 -19.09 L 246.74 -25.3 L 263.21 -25.3 L 263.21 -32.2 Z M 275.68 0 L 283.73 0 L 285.75 -4.74 L 301.25 -4.74 L 303.28 0 L 311.33 0 L 297.53 -32.2 L 289.48 -32.2 Z M 288.51 -11.18 L 293.53 -22.82 L 298.49 -11.18 Z M 324.62 0 L 331.98 0 L 331.98 -7.04 L 338.24 -7.04 L 342.56 0 L 351.3 0 L 345.32 -9.11 C 348.63 -11.27 350.75 -15.04 350.75 -19.69 C 350.75 -26.77 345.6 -32.2 338.24 -32.2 L 324.62 -32.2 Z M 331.98 -13.94 L 331.98 -25.3 L 337.23 -25.3 C 340.49 -25.3 342.93 -23 342.93 -19.64 C 342.93 -16.33 340.68 -13.94 337.23 -13.94 Z" stroke-linecap="round" />
</g>
</g>
</g>
<g transform="matrix(1 0 0 1 325 407.3066464834714)" id="tagline-bfb37e89-41ae-495d-8c77-c972a58c067c-logo"  >
<g style=""  paint-order="stroke"   >
		<g transform="matrix(1 0 0 1 0 0)" id="tagline-bfb37e89-41ae-495d-8c77-c972a58c067c-logo-path-0"  >
<path style="stroke: none; stroke-width: 0; stroke-dasharray: none; stroke-linecap: butt; stroke-dashoffset: 0; stroke-linejoin: miter; stroke-miterlimit: 4; fill: rgb(182,120,237); fill-rule: nonzero; opacity: 1;"  paint-order="stroke"  transform=" translate(0, 0)" d="" stroke-linecap="round" />
</g>
</g>
</g>
</svg>